<svg width="20" height="24" viewBox="0 0 20 24" fill="none" xmlns="http://www.w3.org/2000/svg">
<g clip-path="url(#clip0_0_22)">
<path d="M19.5808 18.5337C19.2218 19.3645 18.7967 20.1293 18.3043 20.8325C17.633 21.791 17.0834 22.4546 16.6598 22.823C16.0032 23.4278 15.2997 23.7376 14.5464 23.7552C14.0056 23.7552 13.3534 23.601 12.5942 23.2884C11.8325 22.9772 11.1325 22.823 10.4925 22.823C9.8212 22.823 9.10128 22.9772 8.33124 23.2884C7.56002 23.601 6.93874 23.764 6.46373 23.7801C5.74132 23.811 5.02125 23.4924 4.30251 22.823C3.84377 22.4223 3.26997 21.7353 2.58259 20.762C1.84508 19.7227 1.23875 18.5175 0.763741 17.1435C0.25502 15.6594 0 14.2223 0 12.8309C0 11.2372 0.343837 9.86259 1.03254 8.71068C1.5738 7.78543 2.29386 7.05556 3.19508 6.51976C4.09629 5.98395 5.07006 5.71091 6.11872 5.69345C6.69251 5.69345 7.44497 5.87121 8.38004 6.22059C9.31248 6.57114 9.91119 6.74891 10.1737 6.74891C10.3699 6.74891 11.035 6.54104 12.1625 6.12664C13.2288 5.74233 14.1287 5.5832 14.8659 5.64588C16.8636 5.80736 18.3644 6.59609 19.3625 8.01707C17.5759 9.1013 16.6921 10.6199 16.7097 12.568C16.7258 14.0855 17.2754 15.3482 18.3556 16.3508C18.8451 16.8161 19.3918 17.1758 20 17.4312C19.8681 17.8144 19.7289 18.1813 19.5808 18.5337ZM14.9993 0.47633C14.9993 1.66568 14.5654 2.77618 13.7007 3.80404C12.6572 5.02597 11.395 5.73205 10.0262 5.62063C10.0088 5.47795 9.99868 5.32778 9.99868 5.16997C9.99868 4.0282 10.4949 2.80627 11.3762 1.80718C11.8162 1.30132 12.3758 0.880708 13.0544 0.545177C13.7315 0.214652 14.372 0.0318644 14.9744 0.000562867C14.9919 0.159561 14.9993 0.318568 14.9993 0.476315V0.47633Z" fill="#FBFBFB"/>
</g>
<defs>
<clipPath id="clip0_0_22">
<rect width="19.5185" height="23.2091" fill="white" transform="scale(1.02467)"/>
</clipPath>
</defs>
</svg>
